<svg id="レイヤー_1" data-name="レイヤー 1" xmlns="http://www.w3.org/2000/svg" viewBox="0 0 714.92 172.36"><defs><style>.cls-1{fill:#fff;}</style></defs><title>FujiokaFactoryWhite</title><path class="cls-1" d="M238,175.2a38.39,38.39,0,0,1-5-7.6,20.27,20.27,0,0,1-2.2-8.6h1.8c1-9.8,2.2-19.6,3.6-29.2a234.47,234.47,0,0,0,1.8-29.4c-.6-2.6-1-5-1.4-7.6a16.19,16.19,0,0,0-2.4-6.6,3.56,3.56,0,0,1-1.6-2.2,10,10,0,0,0-1-2.6,39.3,39.3,0,0,0-2.6-5,10.15,10.15,0,0,1-1.4-5.6l.8-1.2H230v-.8l1.8,1.8H235l2.2-.6,2.4.8.6,2.4h1.2l.4,4.4,4,2.2a29.34,29.34,0,0,1,2,8,59.5,59.5,0,0,0,1,8.6c-.2,2.2-.6,4.2-.8,6a30.35,30.35,0,0,1-1.8,5.6l.4,7-.4,5.4.4,1.4a133.2,133.2,0,0,1-3.2,16,64.62,64.62,0,0,0-2,16.4c.2,3.2.6,6.4,1,9.4.4,3.2.8,6.4,1.4,9.2l-.8,1.6-5,1.2Zm25.6-23-2.8-5.6H260c-.6-1.2-1-2.6-1.6-4a11.73,11.73,0,0,1-.8-4.6,4,4,0,0,0,1.6-2.4,6.59,6.59,0,0,0,0-2.8,18.33,18.33,0,0,0-1.2-5,30.11,30.11,0,0,0-2.2-4.4h.8l12.4,8.2a9.84,9.84,0,0,1,1,4,35.92,35.92,0,0,0,.4,4.4h2.4l3-1.6a10,10,0,0,0,2.2-6c.2-2.4.2-4.6.2-7-.2-2.6-.6-5.2-.8-7.8a11.37,11.37,0,0,0-3.2-6.8l-1.8-.4a8,8,0,0,1-3.2,1.6,22.15,22.15,0,0,1-3.8.4,25.61,25.61,0,0,0-2.2-4.8c-1-1.6-2-3.2-2.8-4.4a5,5,0,0,1,3-2c1.2-.2,2.2-.6,3.2-.8l5.8,1.2a51.13,51.13,0,0,1,9.8-3.2,35.62,35.62,0,0,0,9.4-3.8,8.4,8.4,0,0,0,4.2,1.2h4.4l2-.4,3,1.8V98l-2,4a22.66,22.66,0,0,1-8.2,2.2,33.64,33.64,0,0,0-8.8,1.4v1.2l1.2.8.4,3.2a49.54,49.54,0,0,0-.4,5.8,15.77,15.77,0,0,1-.8,5.6l.4,5.2-1.4,7.4h1.8l9.4-2.8,1.8,2.4.4,2.2h-.8q.3.9,0,1.2a1.82,1.82,0,0,1-1.4.6,56.59,56.59,0,0,1-13,8.2,59.45,59.45,0,0,1-14.2,4.8l-.4,1.6-3.4.2Zm2.6-55a63.75,63.75,0,0,0-2.8-7,31,31,0,0,1-2.6-7.2l.4-.8h.8a26.17,26.17,0,0,0,4.8,3.4,17,17,0,0,0,5.2,2.2,33.35,33.35,0,0,1,1.6,4,7.72,7.72,0,0,1,.6,4.2l-2.6,4h-2.4Zm65.4,82a20.48,20.48,0,0,1-2-6.8,10.65,10.65,0,0,1,1.2-4.8,15.65,15.65,0,0,0,1.4-5V121.8c-.6-10.4-.8-21-1.4-31.6a98.22,98.22,0,0,0-6.4-30.4L323,59l-.4-5H316c-8.8,2.2-17.4,4.6-25.8,7a224.87,224.87,0,0,0-24.8,8.2l-1.4-.8a8.12,8.12,0,0,0-.8-3.8,7.32,7.32,0,0,1-.8-3.6l.4-2.4L261.2,55l4.2-.4,1.6.8c8.4-1.8,16.8-3.8,25.2-5.6A182.09,182.09,0,0,1,318,46.2h15.4l3-.4.8-1.8h2.4a57.36,57.36,0,0,0,7.8,4c2.4,1.2,5,2.6,7.6,4.2l.4,3.6a7,7,0,0,1-1,1.6,2,2,0,0,1-1.8.8l-2.6-.8-1.2.4v2a1.27,1.27,0,0,1-1,1.2l-1.6.8a37.51,37.51,0,0,0-2,9.4,38.75,38.75,0,0,1-2,9.8l.4,2-.8,4.8.4,2.8a2.44,2.44,0,0,0-.8,1.8v1.8l.4,1.6-.4,2.2.8,3.6-1.6,3.6,1.6,4.8a3.81,3.81,0,0,0-1,2,7.5,7.5,0,0,0-.2,2.2c.6,1,1,2.2,1.6,3.4a5.19,5.19,0,0,1,.4,3.4,2.73,2.73,0,0,0-.8,2.2v2.6l.8,3.4-.4,4,.8,2-.8,3.2.8,2.8-1.2,4.6a31.63,31.63,0,0,1,.8,7.6v8c-.2,4-.4,8.2-.6,12a23.55,23.55,0,0,1-3.2,11.2h-.4v-.4H338l-2,.8A29.6,29.6,0,0,1,331.6,179.2Zm-46-91c.4-1.6,1-3.2,1.6-5a13.1,13.1,0,0,0,.6-5.6l-3-2.8v-.4h.4l.4-1.2a6.75,6.75,0,0,0,4-.4,9.56,9.56,0,0,1,3.6-1.2,20.48,20.48,0,0,0,6.8,2,18.14,18.14,0,0,1,6.6,2l.4,1.2h-.4l-.6,3.4-3.6.8L301,82.6a21.54,21.54,0,0,1-7.6,4.6,38.43,38.43,0,0,0-7.8,3.4Zm21,61.6a2.44,2.44,0,0,1-1.8-1.6,6.76,6.76,0,0,0-1.2-2.4l-.8-3,.4-2.8-1-3.4h.6v-4.2l-1.4-8.2-2.4-2v-1.4h2.8v-1h1a23.7,23.7,0,0,0,6.4,1,18,18,0,0,1,6.4,1.8v.8l-.4,1.2.4,1.2a59.54,59.54,0,0,0-1,12,50.14,50.14,0,0,1-1.6,12.4h-1.6v.4h-1.6v.8h-1.6l-.4-.4-.4.4Z" transform="translate(-37.87 -23.64)"/><path class="cls-1" d="M411.6,152.4v-1.2l-6.4-1.4.6-2h-.6v-1.2l15.4-5.8,2-2.6,14.2-1.2,1.4,1.8,3.2.6,21.2-5v-2h-2l-8.4,2.6v-1.2l4-3.4v-1.2l3.2-3.2,1.2-11.6-3-22.6h-.8V90.4l1.4-3-9-4.6-11-8.4-3.4-2.6V70.6a45.63,45.63,0,0,0,7.4,0,11.28,11.28,0,0,0,6.2-3.4v-.6l5.2-1.2,7.8.6,7.6-.6,3.4,1.2a11.68,11.68,0,0,1,4.4-1.6,7.13,7.13,0,0,0,4.6-2.8l2-3.2,3.8-1.4a22.83,22.83,0,0,0,8.6,1.4h9.4v2.6H511l.6,1.8h.6V64L511,67.2l-3.2,2V71H509a120,120,0,0,1-15.8,6.6c-5.2,1.6-10.6,3.6-16.4,5.8V86l1.2,5.8-.6,9,1.4,6.4h-1.4a52,52,0,0,0-3.6,12.4c-1,4.2-1.6,8.6-2.2,12.8h2a139.57,139.57,0,0,1,18.6-1.8c6-.2,12.4-.2,18.8-.2l5.2.6,3.2-.6,9,.6,3.4-.6v-1.2H533l12.8,1.8,2-.6v.6h2.6v1.4h1.2v-.6h2.6l8.4,2,2.6,2.6v3.8h.8l-4.6.6v2h.6l-3.8,1.4v1.6l-6.6.8a154,154,0,0,0-32.8-5.4c-11.6-.6-23.2-1.2-34.4-1.8a164.13,164.13,0,0,0-30.4,6.8c-9.8,3.4-19.6,6.4-29.4,8.8v.6l-5.2,1.4ZM471,129.8h-1.4l-1.8.6V133H471Z" transform="translate(-37.87 -23.64)"/><path class="cls-1" d="M695.2,192.8l-2.4-7.2h1.8v-2l-.6-2h1.8l2.8.6a59.74,59.74,0,0,0,9.2-19.8c1.8-7.4,3.4-14.6,5-22l-2.4-7.2a12.33,12.33,0,0,1-7.6-.6c-2.4-1-4.8-1.8-7-2.8v2l-4.4,4.8c-2.6,6.8-5.4,13.8-8.8,20.8A100.08,100.08,0,0,1,670.4,177l-15,7.2v-.6c5.8-10.4,11.6-20.8,17.6-30.6a76.37,76.37,0,0,0,10.6-33.4h-1.4a115.93,115.93,0,0,0-12.6,3.2,110,110,0,0,0-12.2,4.6c-1.4-1.8-2.8-2.6-4.6-2.4a15.35,15.35,0,0,1-5.2-.2,228.61,228.61,0,0,0-11.6,27,125.29,125.29,0,0,1-14,26.6,13.52,13.52,0,0,1-7,3.8,36.06,36.06,0,0,0-8,2v-.6a206.55,206.55,0,0,0,28.6-49.4A178.91,178.91,0,0,0,648.2,79l-.6-3.2h1.2l2.2-3.4,2.4.6,2-.6,8.4,2,.8,4.6-1.4,5.2h2l19-4.6c-.4-1.6,0-2.8,1.4-3.2a7.83,7.83,0,0,0,3.2-2l8.4-1.4,2-16.2h-3.4c-5.6,2.2-11.4,4-17.6,5.8-6,1.6-12.2,3.2-18.2,4.6a28.86,28.86,0,0,0-8-1.8,12.17,12.17,0,0,1-7.6-2.8V61.4l7.8-1.4,1.8-5.8h2.8l4,1.2c7.4-1.6,14.6-3.4,21.8-5.2S697,46.6,704.4,45l.6-2.6h2.8V41H709a16.26,16.26,0,0,0,10.4,5.2,36.09,36.09,0,0,1,10.4,2.6l2,4.8L730.6,56,722,58.8a23.63,23.63,0,0,0-5,10,19.61,19.61,0,0,1-6,9.6,48.41,48.41,0,0,1-4.6,2.4A7,7,0,0,0,703,85h-1l-1.4-2.2h-2v1.4h-1.4l-3.8-.6-7.8,2.6v1.4L700,91.4l.6,4-2,.4v2a19.18,19.18,0,0,1-8.4,3.4,29,29,0,0,0-8.6,2.8v-1.4l4-6.8-6-3-3.8-4h-2l-13.8,4a79.72,79.72,0,0,0-6.6,13.8c-1.6,5.2-3.2,10-4.6,14.8h1.4l5.2-4.4,4.6-1.4,3.2-3.2,11.8-.6,1.4.6v.4h3.2a56,56,0,0,1,23.2-6.8c8.4-.6,16.8-1.6,25-2.8V102h4l2.8.6V102h1.8l16.4,2v1.8l-3.2,5.2-37.4,1.4-11.6-.6v1L702,117l-3.4,8.4H705a92.14,92.14,0,0,1,11.2-2.4,37.62,37.62,0,0,1,11.6-.2l11.2,2.6.8,2-2,3.8-7.2,2.8-2.8,5.8L726,141c-3.4,8.8-6.8,17.4-10.6,25.8-3.8,8.6-7.4,17.2-11,26l-7.2,3.2-1.4-.6-.6.6ZM658,42.4h-6.4a6.45,6.45,0,0,1-5.4-2.6L644.8,36a34.54,34.54,0,0,0,8.4-1,65.92,65.92,0,0,0,7.6-2.4V31.2l11-.6,1.2,2h2l17.8-5.8.6-2.8h1.2l18.2,1.4,1.4,2.6,1.4.8v2.4L714.2,34a202.9,202.9,0,0,0-27,6,100.29,100.29,0,0,1-27.8,5Z" transform="translate(-37.87 -23.64)"/><path class="cls-1" d="M70.44,184.22a13.51,13.51,0,0,1-1.86-8.14l2.63-.43.92-13.77-1-36.54-1-.07-8.46,9.66-1.39-.09-3,2.6a234.81,234.81,0,0,1-8,23.53,131.69,131.69,0,0,1-11.26,21.7l-.21-6a247.31,247.31,0,0,0,9.27-30.85,156.2,156.2,0,0,0,4-33.61,85.89,85.89,0,0,0-1.52-16.33,87.24,87.24,0,0,1-1.3-16.53l1,.07,7.08,5.08.17-2.59,1.2.08L59.26,78a21.07,21.07,0,0,0,11.87-3.62,33.48,33.48,0,0,1,11.16-5.07L90,71.67c-.06,1,.31,1.42,1.31,1.49l2.39.15L100.49,79l-.08,1.2L103,81l-.57,8.58,1.39.09,1.42-12.33-.83-8.47-1.2-.08.22-3.39,2-.47.9-4.55-.46-2,3.87-.94c1-2.54,1.93-4.88,2.7-7.44A32.28,32.28,0,0,0,114,42l-1.2-.08a66,66,0,0,1-12.25,3.39,67.72,67.72,0,0,0-12.45,3.38l-3.94,11-2.68,1-2.59-9.19-4.59-.31-7.94,1.88a8,8,0,0,0-6-2.61,5.83,5.83,0,0,1-5.44-2.56l-.47-2L74.93,41.4l.93-1.94-2.61-3-.48-1.83,3.4.22,13.26,5.49,24.39-5,1.38-11.73,1.39.09a24,24,0,0,0,8.69,2,24.63,24.63,0,0,1,8.69,2l-.21,3.19-2.9,4.42,5.74,1,7.83-.08,12.84,2.86-.08,1.2-6.14,4.8-6.58-.43-16-3.08c-2.24,3.46-4.66,6.71-7.11,10.36a24.36,24.36,0,0,1-9.76,8.17l-.13,2,4.34,4.1.28,4.83-.93,5,.58,9.26-1.41,3.11,1.2.08,4.71-1.49.69-1.36,2-.47a41,41,0,0,0,2.66-6.83,31.93,31.93,0,0,0,1.48-7.32l-3.65-2.25,2.39.16.93-1.94,7-.14,12.3,4.83-.34,5.19-2.26,3.86.13-2-1.4-.09a14.1,14.1,0,0,1-6.09,4.2,21.75,21.75,0,0,1-7.34,1.92l-.74,2,3,.2c1,.06,1.36.69,1.26,2.08l-2.7,4.44-1.39-.1-.08,1.2-1.2-.08-.09,1.4-15.36,4.79-2.55,8.25,2,.13,8-2.67.08-1.2-1.17-3.49,4,.27,5.7,1.78c3.68-1.16,7.15-2.13,10.84-3.29a27.42,27.42,0,0,1,10.91-1.28l7.14,1.08-.22,3.39-2.49,1.24-2.2,2.86a28.62,28.62,0,0,1-8.49,1,20.55,20.55,0,0,0-8.74,1.82l-.13,2,8.49,11a91,91,0,0,0,20.16,16.37A102.89,102.89,0,0,0,186,150l-2-.13-.08,1.19,7.07,2.28-2.8-.19-1.95-.73-.1,1.4-3-.2-.08,1.2-4.79-.32a174.54,174.54,0,0,1-21.17-7.22,62.25,62.25,0,0,1-19.17-13.1L138,133l-3.07-2L122.24,113.7l-16.81,8.5a76.85,76.85,0,0,1-4,12.36c-1.65,3.7-3.12,7.61-4.77,11.31a27.85,27.85,0,0,1,6,1,6.27,6.27,0,0,1,3.57,3.64l-2.26,3.86-4.51,1.51-2.74-1,0-.6,1-2.34-2.56-3.58-3-.2-2,.47.42-6.39c1-2.14,1.7-4.49,2.45-6.65.56-2.36,1.13-4.93,1.69-7.3l-1.2-.08a8.06,8.06,0,0,1-3.15,2.2,11.92,11.92,0,0,1-3.63.36l.07-1.2-1-3.28-7.09-1.87-.81,3.15A306.11,306.11,0,0,1,79,158.73a223.87,223.87,0,0,0,1.14,31.14c-.49,1.37-1.33,1.92-2.33,1.85l-3.59-.24A71.59,71.59,0,0,0,70.44,184.22Zm1.8-90.28-1-5.28-.6,0,.17-2.6.81-3.15L69,82.7l-3.65,3.57-2.59-.18-3.08-2-.91,1.75,1.94.93L61.14,92,60,97.73l.54,3.85,1.2.08,10.14-1.73Zm-1.18,26.78.21-3.19.09-10.42-2-.13-8.84,3.22-1.71,16.72L60,127l2.26-.85Zm8.9,1.79,4-.33.25-3.79,14.69-6.84,2.48-7.25-1.79-3.13-1.4-.09-3,.4-1.6-6.12,5.07-.87,1.06-3.93-3.79-.26c-1.28-1.88-2.57-3.57-4-5.48a9.06,9.06,0,0,1-1.81-5.93l-4.59-.31a18.21,18.21,0,0,0-3.25,6.61c-.76,2.35-1.53,4.9-2.1,7.47l.44,2.44-1.85,6.69L78.59,116l-1.15,5.13,2.43,2.77.63-.56Zm12,58.32-1.23-2.48-1.35-.89-4.07-8.09,4.07-.93-.08,1.19,2,.14,9.69-7.18-.11,1.8L93.71,181l-1.84.47Zm20.39,4-2.55-10a7.08,7.08,0,0,0,2.34-5.06c.15-2.19.3-4.39.43-6.39a123.29,123.29,0,0,1-1.21-14.91,55.2,55.2,0,0,0-2.67-14.21l1.66-6.9,1.4.09,2.26,2.16-.06,1,1.9,1.53,3.77,3.66.14,9.83-1.09,4.34c.6,6.05.78,12.48,1,18.7a131.7,131.7,0,0,1-.92,20l-1.83.28Zm15.93-40.63-1.08-4.89,10.38.69,4.32,4.3-3.74,5a27.53,27.53,0,0,1-5.15,2.06,41.26,41.26,0,0,0-5.33,1.85Zm13.68,29.37a53,53,0,0,1-6.67-8.26l-.4-3-1.39-.09.05-.8.8.06c4.47,2.1,9.14,4.21,13.39,6.5A68.67,68.67,0,0,1,160.52,177l.43,2.63-2.4-.16-.09,1.4-8.58-.57A53.38,53.38,0,0,1,141.91,173.54Z" transform="translate(-37.87 -23.64)"/></svg>